<svg viewBox="0 0 24 24" xmlns="http://www.w3.org/2000/svg" fill="#f4434c">
  <g id="SVGRepo_bgCarrier" stroke-width="0"></g>
  <g id="SVGRepo_tracerCarrier" stroke-linecap="round" stroke-linejoin="round"></g>
  <g id="SVGRepo_iconCarrier">
    <g>
      <path fill="none" d="M0 0h24v24H0z"></path>
      <path
        d="M17 2h3a1 1 0 0 1 1 1v18a1 1 0 0 1-1 1H4a1 1 0 0 1-1-1V3a1 1 0 0 1 1-1h3V0h2v2h6V0h2v2zm0 2v2h-2V4H9v2H7V4H5v16h14V4h-2zM7 8h10v2H7V8zm0 4h10v2H7v-2z">
      </path>
    </g>
  </g>
</svg>
